<svg width="35" height="35" viewBox="0 0 35 35" fill="none" xmlns="http://www.w3.org/2000/svg">
<g clip-path="url(#clip0_1698_2)">
<path d="M16.7709 20.4167C16.3334 20.4167 16.0417 20.125 16.0417 19.6875C16.0417 19.25 16.3334 18.9583 16.7709 18.9583H18.2292C18.6667 18.9583 18.9584 18.6667 18.9584 18.2292C18.9584 17.7917 18.6667 17.5 18.2292 17.5H17.5V16.7708C17.5 16.3333 17.2084 16.0417 16.7709 16.0417C16.3334 16.0417 16.0417 16.3333 16.0417 16.7708V17.6458C15.1667 17.9375 14.5834 18.8125 14.5834 19.6875C14.5834 20.8542 15.6042 21.875 16.7709 21.875C17.2084 21.875 17.5 22.1667 17.5 22.6042C17.5 23.0417 17.2084 23.3333 16.7709 23.3333H15.3125C14.875 23.3333 14.5834 23.625 14.5834 24.0625C14.5834 24.5 14.875 24.7917 15.3125 24.7917H16.0417V25.5208C16.0417 25.9583 16.3334 26.25 16.7709 26.25C17.2084 26.25 17.5 25.9583 17.5 25.5208V24.6458C18.375 24.3542 18.9584 23.4792 18.9584 22.6042C18.9584 21.4375 17.9375 20.4167 16.7709 20.4167Z" fill="#FF555A"/>
<path d="M30.625 26.25C29.4583 26.25 28.2917 26.8333 27.4167 27.5625L23.7708 25.0833C24.3542 23.9167 24.7917 22.6042 24.7917 21.1458C24.7917 20.2708 24.6458 19.3958 24.3542 18.5208L26.9792 17.3542C27.7083 18.2292 28.7292 18.9583 29.8958 18.9583C31.9375 18.9583 33.5417 17.3542 33.5417 15.3125C33.5417 13.2708 31.9375 11.6667 29.8958 11.6667C29.75 11.6667 29.4583 11.6667 29.3125 11.6667L28.4375 9.625C28.875 9.1875 29.1667 8.60417 29.1667 8.02083C29.1667 6.85417 28.1458 5.83333 26.9792 5.83333C25.8125 5.83333 24.7917 6.85417 24.7917 8.02083C24.7917 9.1875 25.8125 10.2083 26.9792 10.2083H27.125L28 12.25C26.9792 12.9792 26.25 14 26.25 15.3125C26.25 15.6042 26.25 15.8958 26.3958 16.0417L23.7708 17.2083C22.4583 14.7292 19.8333 13.125 16.7708 13.125C14.5833 13.125 12.6875 14 11.2292 15.3125L9.33333 13.7083C9.91667 12.9792 10.2083 11.9583 10.2083 10.9375C10.2083 10.0625 9.91667 9.33333 9.625 8.60417L12.8333 6.27083C13.4167 6.85417 14.2917 7.29167 15.3125 7.29167C17.2083 7.29167 18.8125 5.6875 18.9583 3.79167L22.1667 3.20833C22.4583 3.9375 23.1875 4.375 24.0625 4.375C25.2292 4.375 26.25 3.35417 26.25 2.1875C26.25 1.02083 25.2292 0 24.0625 0C23.0417 0 22.1667 0.729167 21.875 1.75L18.6667 2.33333C18.2292 1.02083 16.9167 0 15.3125 0C13.2708 0 11.6667 1.60417 11.6667 3.64583C11.6667 4.22917 11.8125 4.66667 11.9583 5.10417L8.75 7.4375C7.875 6.41667 6.5625 5.83333 5.10417 5.83333C2.33333 5.83333 0 8.16667 0 10.9375C0 13.7083 2.33333 16.0417 5.10417 16.0417C6.41667 16.0417 7.58333 15.6042 8.45833 14.7292L10.3542 16.3333C9.33333 17.6458 8.75 19.25 8.75 21C8.75 22.6042 9.1875 23.9167 9.91667 25.2292L7.4375 27.125C6.85417 26.5417 5.97917 26.25 4.95833 26.25C3.0625 26.25 1.45833 27.8542 1.45833 29.8958C1.45833 31.9375 3.0625 33.5417 5.10417 33.5417C7.14583 33.5417 8.75 31.9375 8.75 29.8958C8.75 29.3125 8.60417 28.875 8.45833 28.2917L10.9375 26.3958C12.3958 28 14.5833 29.0208 16.9167 29.0208C19.3958 29.0208 21.5833 27.8542 23.0417 26.1042L26.6875 28.5833C26.3958 29.3125 26.25 30.0417 26.25 30.625C26.25 33.1042 28.1458 35 30.625 35C33.1042 35 35 33.1042 35 30.625C35 28.1458 33.1042 26.25 30.625 26.25ZM26.25 8.02083C26.25 7.58333 26.5417 7.29167 26.9792 7.29167C27.4167 7.29167 27.7083 7.58333 27.7083 8.02083C27.7083 8.45833 27.4167 8.75 26.9792 8.75C26.5417 8.75 26.25 8.45833 26.25 8.02083ZM29.8958 13.125C31.0625 13.125 32.0833 14.1458 32.0833 15.3125C32.0833 16.4792 31.0625 17.5 29.8958 17.5C28.7292 17.5 27.7083 16.4792 27.7083 15.3125C27.7083 14.1458 28.7292 13.125 29.8958 13.125ZM24.0625 1.45833C24.5 1.45833 24.7917 1.75 24.7917 2.1875C24.7917 2.625 24.5 2.91667 24.0625 2.91667C23.625 2.91667 23.3333 2.625 23.3333 2.1875C23.3333 1.75 23.625 1.45833 24.0625 1.45833ZM15.3125 1.45833C16.4792 1.45833 17.5 2.47917 17.5 3.64583C17.5 4.8125 16.4792 5.83333 15.3125 5.83333C14.1458 5.83333 13.125 4.8125 13.125 3.64583C13.125 2.47917 14.1458 1.45833 15.3125 1.45833ZM5.10417 32.0833C3.9375 32.0833 2.91667 31.0625 2.91667 29.8958C2.91667 28.7292 3.9375 27.7083 5.10417 27.7083C6.27083 27.7083 7.29167 28.7292 7.29167 29.8958C7.29167 31.0625 6.27083 32.0833 5.10417 32.0833ZM5.10417 14.5833C3.0625 14.5833 1.45833 12.9792 1.45833 10.9375C1.45833 8.89583 3.0625 7.29167 5.10417 7.29167C7.14583 7.29167 8.75 8.89583 8.75 10.9375C8.75 12.9792 7.14583 14.5833 5.10417 14.5833ZM16.7708 27.7083C13.125 27.7083 10.2083 24.7917 10.2083 21.1458C10.2083 17.5 13.125 14.5833 16.7708 14.5833C20.4167 14.5833 23.3333 17.5 23.3333 21.1458C23.3333 24.7917 20.4167 27.7083 16.7708 27.7083ZM30.625 33.5417C29.0208 33.5417 27.7083 32.2292 27.7083 30.625C27.7083 29.0208 29.0208 27.7083 30.625 27.7083C32.2292 27.7083 33.5417 29.0208 33.5417 30.625C33.5417 32.2292 32.2292 33.5417 30.625 33.5417Z" fill="#FF555A"/>
</g>
<defs>
<clipPath id="clip0_1698_2">
<rect width="35" height="35" fill="white"/>
</clipPath>
</defs>
</svg>
