<svg width="35" height="35" viewBox="0 0 35 35" fill="none" xmlns="http://www.w3.org/2000/svg">
<path d="M8.02079 4.37501C7.61808 4.37501 7.29163 4.70146 7.29163 5.10417V9.47917C7.29163 9.88188 7.61808 10.2083 8.02079 10.2083H21.1458C21.5485 10.2083 21.875 9.88188 21.875 9.47917V5.10417C21.875 4.70146 21.5485 4.37501 21.1458 4.37501H8.02079ZM8.02079 2.91667H21.1458C22.3539 2.91667 23.3333 3.89605 23.3333 5.10417V9.47917C23.3333 10.6873 22.3539 11.6667 21.1458 11.6667H8.02079C6.81267 11.6667 5.83329 10.6873 5.83329 9.47917V5.10417C5.83329 3.89605 6.81267 2.91667 8.02079 2.91667ZM9.47913 5.83334H10.9375C11.3402 5.83334 11.6666 6.1598 11.6666 6.5625V8.02084C11.6666 8.42355 11.3402 8.75 10.9375 8.75H9.47913C9.07642 8.75 8.74996 8.42355 8.74996 8.02084V6.5625C8.74996 6.1598 9.07642 5.83334 9.47913 5.83334ZM13.8541 5.83334H15.3125C15.7152 5.83334 16.0416 6.1598 16.0416 6.5625V8.02084C16.0416 8.42355 15.7152 8.75 15.3125 8.75H13.8541C13.4514 8.75 13.125 8.42355 13.125 8.02084V6.5625C13.125 6.1598 13.4514 5.83334 13.8541 5.83334ZM24.7916 23.3333V21.875H21.1458C19.9377 21.875 18.9583 20.8956 18.9583 19.6875V18.2292C18.9583 17.021 19.9377 16.0417 21.1458 16.0417H24.7916V15.3125C24.7916 14.9098 24.4652 14.5833 24.0625 14.5833H10.9375C10.5348 14.5833 10.2083 14.9098 10.2083 15.3125V16.0417H13.8541C15.0622 16.0417 16.0416 17.021 16.0416 18.2292V19.6875C16.0416 20.8956 15.0622 21.875 13.8541 21.875H5.10413C3.896 21.875 2.91663 20.8956 2.91663 19.6875V18.2292C2.91663 17.021 3.896 16.0417 5.10413 16.0417H8.74996V15.3125C8.74996 14.1044 9.72934 13.125 10.9375 13.125H14.5833V10.9375C14.5833 10.5348 14.9098 10.2083 15.3125 10.2083C15.7152 10.2083 16.0416 10.5348 16.0416 10.9375V13.125H24.0625C25.2706 13.125 26.25 14.1044 26.25 15.3125V16.0417H29.8958C31.1039 16.0417 32.0833 17.021 32.0833 18.2292V19.6875C32.0833 20.8956 31.1039 21.875 29.8958 21.875H26.25V23.4578C27.0996 23.7581 27.7083 24.5684 27.7083 25.5208V26.25H28.4375C29.6456 26.25 30.625 27.2294 30.625 28.4375V29.8958C30.625 31.104 29.6456 32.0833 28.4375 32.0833H25.5208C24.3127 32.0833 23.3333 31.104 23.3333 29.8958V28.4375C23.3333 27.2294 24.3127 26.25 25.5208 26.25H26.25V25.5208C26.25 25.1181 25.9235 24.7917 25.5208 24.7917H17.5V26.25H18.2291C19.4372 26.25 20.4166 27.2294 20.4166 28.4375V29.8958C20.4166 31.104 19.4372 32.0833 18.2291 32.0833H15.3125C14.1043 32.0833 13.125 31.104 13.125 29.8958V28.4375C13.125 27.2294 14.1043 26.25 15.3125 26.25H16.0416V24.7917H8.02079C7.61808 24.7917 7.29163 25.1181 7.29163 25.5208V26.25H8.02079C9.22892 26.25 10.2083 27.2294 10.2083 28.4375V29.8958C10.2083 31.104 9.22892 32.0833 8.02079 32.0833H5.10413C3.896 32.0833 2.91663 31.104 2.91663 29.8958V28.4375C2.91663 27.2294 3.896 26.25 5.10413 26.25H5.83329V25.5208C5.83329 24.3127 6.81267 23.3333 8.02079 23.3333H24.7916ZM18.2291 5.83334H19.6875C20.0902 5.83334 20.4166 6.1598 20.4166 6.5625V8.02084C20.4166 8.42355 20.0902 8.75 19.6875 8.75H18.2291C17.8264 8.75 17.5 8.42355 17.5 8.02084V6.5625C17.5 6.1598 17.8264 5.83334 18.2291 5.83334ZM21.1458 17.5C20.7431 17.5 20.4166 17.8265 20.4166 18.2292V19.6875C20.4166 20.0902 20.7431 20.4167 21.1458 20.4167H29.8958C30.2985 20.4167 30.625 20.0902 30.625 19.6875V18.2292C30.625 17.8265 30.2985 17.5 29.8958 17.5H21.1458ZM5.10413 17.5C4.70142 17.5 4.37496 17.8265 4.37496 18.2292V19.6875C4.37496 20.0902 4.70142 20.4167 5.10413 20.4167H13.8541C14.2568 20.4167 14.5833 20.0902 14.5833 19.6875V18.2292C14.5833 17.8265 14.2568 17.5 13.8541 17.5H5.10413ZM5.10413 27.7083C4.70142 27.7083 4.37496 28.0348 4.37496 28.4375V29.8958C4.37496 30.2985 4.70142 30.625 5.10413 30.625H8.02079C8.4235 30.625 8.74996 30.2985 8.74996 29.8958V28.4375C8.74996 28.0348 8.4235 27.7083 8.02079 27.7083H5.10413ZM15.3125 27.7083C14.9098 27.7083 14.5833 28.0348 14.5833 28.4375V29.8958C14.5833 30.2985 14.9098 30.625 15.3125 30.625H18.2291C18.6318 30.625 18.9583 30.2985 18.9583 29.8958V28.4375C18.9583 28.0348 18.6318 27.7083 18.2291 27.7083H15.3125ZM25.5208 27.7083C25.1181 27.7083 24.7916 28.0348 24.7916 28.4375V29.8958C24.7916 30.2985 25.1181 30.625 25.5208 30.625H28.4375C28.8402 30.625 29.1666 30.2985 29.1666 29.8958V28.4375C29.1666 28.0348 28.8402 27.7083 28.4375 27.7083H25.5208Z" fill="#FF555A"/>
</svg>
