<svg width="95" height="95" viewBox="0 0 95 95" fill="none" xmlns="http://www.w3.org/2000/svg">
<g clip-path="url(#clip0_1684_2)">
<path d="M37.6042 20.5833C35.8841 24.1435 34.4929 27.8533 33.4479 31.6667H43.5417V13.2604C41.0813 15.2684 39.0603 17.761 37.6042 20.5833Z" fill="#FF555A"/>
<path d="M31.6667 47.5C31.6667 50.0729 31.8646 52.8438 32.0625 55.4167H43.5417V39.5833H32.0625C31.8646 42.1563 31.6667 44.7292 31.6667 47.5Z" fill="#FF555A"/>
<path d="M37.6042 74.4167C39.0603 77.239 41.0813 79.7316 43.5417 81.7396V63.3333H33.4479C34.4929 67.1467 35.8841 70.8565 37.6042 74.4167Z" fill="#FF555A"/>
<path d="M57.3959 74.4167C59.1159 70.8565 60.5071 67.1467 61.5521 63.3333H51.4584V81.7396C53.9188 79.7316 55.9398 77.239 57.3959 74.4167Z" fill="#FF555A"/>
<path d="M57.3959 20.5833C55.9398 17.761 53.9188 15.2684 51.4584 13.2604V31.6667H61.5521C60.5071 27.8533 59.1159 24.1435 57.3959 20.5833Z" fill="#FF555A"/>
<path d="M63.3334 47.5C63.3334 44.7292 63.1355 42.1563 62.9375 39.5833H51.4584V55.4167H62.9375C63.1355 52.8438 63.3334 50.0729 63.3334 47.5Z" fill="#FF555A"/>
<path d="M24.1459 39.5833C23.9479 42.1563 23.75 44.7292 23.75 47.5C23.75 50.2708 23.9479 52.8438 24.1459 55.4167H4.75002C4.18291 52.817 3.91727 50.1605 3.95835 47.5C3.91727 44.8395 4.18291 42.1831 4.75002 39.5833H24.1459Z" fill="#FF555A"/>
<path d="M43.5417 4.15625V4.55208C43.3881 4.55208 43.2366 4.58785 43.0992 4.65656C42.9617 4.72526 42.8422 4.82501 42.75 4.94792H41.7605C39.7472 6.01797 37.8839 7.34889 36.2188 8.90625L35.4271 9.69792C33.8204 11.5126 32.426 13.5046 31.2709 15.6354C30.8675 16.1852 30.535 16.7837 30.2813 17.4167L28.5 20.9792C28.3222 21.6701 28.0561 22.3353 27.7084 22.9583L27.1146 24.9375L26.5209 26.7188C26.125 28.1042 25.7292 29.8854 25.3334 31.4687H6.92712C7.91383 28.9351 9.10527 26.486 10.4896 24.1458L11.2813 23.1563C12.2978 21.6267 13.4222 20.1716 14.6459 18.8021L15.6355 17.8125C16.0313 17.4167 16.2292 17.0208 16.625 16.8229C17.6451 15.724 18.7722 14.7295 19.9896 13.8542C20.1483 13.5027 20.4298 13.2212 20.7813 13.0625L21.375 12.6667L22.7605 11.6771L23.948 10.8854L25.5313 9.89583L26.7188 9.10417L28.3021 8.51042L29.4896 7.91667C33.4527 6.13505 37.6523 4.93516 41.9584 4.35417H43.5417V4.15625Z" fill="#FF555A"/>
<path d="M43.5417 90.4479V90.8438H41.9584C37.6422 90.1998 33.4422 88.9331 29.4896 87.0833L28.3021 86.4896L26.7188 85.6979L25.5313 85.1042L23.948 84.1146L22.7605 83.3229L21.375 82.3333L20.7813 81.7396C20.3855 81.7396 20.1875 81.5417 19.9896 81.1458C18.7722 80.2705 17.6451 79.276 16.625 78.1771C16.2292 77.9792 16.0313 77.5833 15.6355 77.1875C15.2396 76.7917 15.0417 76.3958 14.6459 76.1979C13.4144 74.765 12.2899 73.2435 11.2813 71.6458C11.0878 71.2073 10.82 70.8056 10.4896 70.4583C9.06788 68.2079 7.87446 65.821 6.92712 63.3333H25.3334L26.5209 68.0833L27.1146 69.8646L27.7084 71.8438C28.0561 72.4668 28.3222 73.132 28.5 73.8229L30.2813 77.3854C30.535 78.0184 30.8675 78.6169 31.2709 79.1667C32.426 81.2975 33.8204 83.2895 35.4271 85.1042L36.2188 85.6979C37.7805 87.3772 39.6654 88.7236 41.7605 89.6563L42.5521 90.0521L43.5417 90.4479Z" fill="#FF555A"/>
<path d="M88.073 31.6667H69.6667L68.4792 26.9167L67.8855 25.1354L67.2917 23.1563C66.944 22.5332 66.6779 21.868 66.5 21.1771L64.7188 17.6146C64.4651 16.9816 64.1326 16.3831 63.7292 15.8333C62.5741 13.7025 61.1797 11.7105 59.573 9.89583L58.7813 9.10417C57.1161 7.5468 55.2529 6.21588 53.2396 5.14583H52.25C52.1579 5.02293 52.0383 4.92318 51.9009 4.85447C51.7635 4.78577 51.612 4.75 51.4584 4.75V4.15625H53.0417C57.3579 4.80021 61.5579 6.06687 65.5105 7.91667L66.698 8.51042L68.2813 9.10417L69.4688 9.89583L71.0521 10.8854L72.2396 11.6771L73.625 12.6667L74.2188 13.0625C74.5703 13.2212 74.8518 13.5027 75.0105 13.8542C76.2278 14.7295 77.3549 15.724 78.375 16.8229L79.3646 17.8125C79.7605 18.2083 79.9584 18.6042 80.3542 18.8021C81.5856 20.235 82.7102 21.7565 83.7188 23.3542L84.5105 24.3438C85.8948 26.684 87.0862 29.133 88.073 31.6667Z" fill="#FF555A"/>
<path d="M88.073 63.3333C87.1256 65.821 85.9322 68.2078 84.5105 70.4583C84.1801 70.8055 83.9122 71.2073 83.7188 71.6458C82.7102 73.2435 81.5856 74.7649 80.3542 76.1979C79.9584 76.3958 79.7605 76.7917 79.3646 77.1875L78.375 78.1771C77.3549 79.276 76.2278 80.2705 75.0105 81.1458C74.8125 81.5417 74.6146 81.7396 74.2188 81.7396L73.625 82.3333L72.2396 83.3229L71.0521 84.1146L69.4688 85.1042L68.2813 85.6979L66.698 86.4896L65.5105 87.0833C61.5474 88.8649 57.3478 90.0648 53.0417 90.6458H51.4584V90.25L52.448 89.8542L53.2396 89.4583C55.3346 88.5257 57.2196 87.1793 58.7813 85.5L59.573 84.9062C61.1797 83.0916 62.5741 81.0995 63.7292 78.9687C64.1326 78.4189 64.4651 77.8205 64.7188 77.1875L66.5 73.625C66.6779 72.934 66.944 72.2688 67.2917 71.6458L67.8855 69.6667L68.4792 67.8854L69.6667 63.1354L88.073 63.3333Z" fill="#FF555A"/>
<path d="M91.0417 47.5C91.0828 50.1605 90.8171 52.817 90.25 55.4167H70.8542C71.0521 52.8438 71.25 50.2708 71.25 47.5C71.25 44.7292 71.0521 42.1563 70.8542 39.5833H90.25C90.8171 42.1831 91.0828 44.8395 91.0417 47.5Z" fill="#FF555A"/>
</g>
<defs>
<clipPath id="clip0_1684_2">
<rect width="95" height="95" fill="white"/>
</clipPath>
</defs>
</svg>
