<svg width="35" height="35" viewBox="0 0 35 35" fill="none" xmlns="http://www.w3.org/2000/svg">
<g clip-path="url(#clip0_1698_8)">
<path d="M33.513 9.89367C33.3818 9.72406 33.1794 9.62464 32.9649 9.62464H25.146L18.8498 0.305056C18.6356 -0.0120087 18.205 -0.0953739 17.8879 0.118812C17.5708 0.332999 17.4875 0.763565 17.7016 1.08063L23.4738 9.62464H10.065L15.837 1.08063C16.0512 0.763565 15.9678 0.332999 15.6508 0.118812C15.3337 -0.0953739 14.903 -0.0121241 14.6888 0.305056L8.3928 9.62464H0.692833C0.478416 9.62464 0.276007 9.72394 0.144724 9.89367C0.013557 10.0633 -0.031705 10.2842 0.0223323 10.4918L4.84562 29.0394C4.92506 29.3447 5.20067 29.5578 5.51612 29.5578H28.1417C28.4571 29.5578 28.7328 29.3447 28.8122 29.0394L33.6354 10.4918C33.6893 10.2843 33.6442 10.0634 33.513 9.89367ZM29.2138 21.9896H22.3024V17.1925H30.4613L29.2138 21.9896ZM20.9168 21.9896H12.7407V17.1925H20.9168V21.9896ZM20.9168 23.3752V28.1722H12.7407V23.3752H20.9168ZM3.19656 17.1925H11.3553V21.9896H4.44392L3.19656 17.1925ZM12.7408 15.8069V11.0102H20.9169V15.8069H12.7408ZM8.7594 11.0102C8.75963 11.0102 8.75986 11.0102 8.76021 11.0102C8.76056 11.0102 8.76079 11.0102 8.76113 11.0102H11.3552V15.8069H2.8362L1.58884 11.0102H8.7594ZM4.80429 23.3752H11.3552V28.1722H6.05176L4.80429 23.3752ZM27.6059 28.1722H22.3023V23.3752H28.8534L27.6059 28.1722ZM30.8215 15.8069H22.3023V11.0102H24.7776C24.778 11.0102 24.7782 11.0102 24.7786 11.0102C24.7788 11.0102 24.779 11.0102 24.7794 11.0102H32.0689L30.8215 15.8069Z" fill="#FF555A"/>
</g>
<defs>
<clipPath id="clip0_1698_8">
<rect width="35" height="35" fill="white"/>
</clipPath>
</defs>
</svg>
